<svg xmlns="http://www.w3.org/2000/svg" viewBox="0 0 100.56 42.14"><defs><style>.cls-1{fill:#e52713;}.cls-2{fill:#0082cb;}.cls-3{fill:#00b2e3;}</style></defs><g id="Layer_2" data-name="Layer 2"><g id="Layer_1-2" data-name="Layer 1"><path class="cls-1" d="M21.77,8.42H16.15a5.46,5.46,0,0,0-4.74,3.28L0,42.14H5.62a5.48,5.48,0,0,0,4.75-3.29Z"/><polygon class="cls-1" points="15.45 25.28 19.66 42.14 28.8 42.14 24.58 25.28 41.41 8.43 32.31 8.42 15.45 25.28"/><path class="cls-2" d="M75.74,0H59.59a5.46,5.46,0,0,0-4.75,3.29L52.91,8.42H63.45l-3.17,8.43H49.75l3.16-8.43H43.78L31.13,42.14h5.63a5.46,5.46,0,0,0,4.74-3.29l5.09-13.57H62.75A5.48,5.48,0,0,0,67.49,22Z"/><path class="cls-3" d="M100.56,16.85H91.43L85.1,33.71H74.57l6.32-16.86H75.27a5.47,5.47,0,0,0-4.74,3.29l-8.25,22H87.56a5.47,5.47,0,0,0,4.75-3.29Z"/></g></g></svg>