<svg width="40" height="40" viewBox="0 0 40 40" fill="none" xmlns="http://www.w3.org/2000/svg">
<circle cx="20" cy="20" r="20" fill="#EEEEEE"/>
<path fill-rule="evenodd" clip-rule="evenodd" d="M8 20.067C8 26.033 12.333 30.994 18 32V23.333H15V20H18V17.333C18 14.333 19.933 12.667 22.667 12.667C23.533 12.667 24.467 12.8 25.333 12.933V16H23.8C22.333 16 22 16.733 22 17.667V20H25.2L24.667 23.333H22V32C27.667 30.994 32 26.034 32 20.067C32 13.43 26.6 8 20 8C13.4 8 8 13.43 8 20.067Z" fill="black"/>
</svg>
