<svg width="40" height="40" viewBox="0 0 40 40" fill="none" xmlns="http://www.w3.org/2000/svg">
<circle cx="20" cy="20" r="20" fill="#EEEEEE"/>
<g clip-path="url(#clip0_997_24107)">
<path d="M31.6435 12.9371C30.8085 13.3071 29.9115 13.5571 28.9685 13.6701C29.9415 13.0879 30.6694 12.1715 31.0165 11.0921C30.1023 11.6351 29.1018 12.0173 28.0585 12.2221C27.3569 11.4729 26.4276 10.9764 25.4148 10.8096C24.4021 10.6427 23.3626 10.8149 22.4577 11.2993C21.5529 11.7838 20.8333 12.5534 20.4107 13.4888C19.988 14.4241 19.886 15.4728 20.1205 16.4721C18.2682 16.3791 16.4561 15.8976 14.8019 15.059C13.1477 14.2203 11.6883 13.0432 10.5185 11.6041C10.1185 12.2941 9.8885 13.0941 9.8885 13.9461C9.88805 14.7131 10.0769 15.4683 10.4384 16.1448C10.7998 16.8213 11.3227 17.3981 11.9605 17.8241C11.2208 17.8005 10.4974 17.6007 9.8505 17.2411V17.3011C9.85043 18.3768 10.2225 19.4195 10.9037 20.2521C11.5848 21.0847 12.5331 21.656 13.5875 21.8691C12.9013 22.0548 12.1818 22.0821 11.4835 21.9491C11.781 22.8747 12.3605 23.6841 13.1409 24.264C13.9212 24.8439 14.8634 25.1653 15.8355 25.1831C14.1853 26.4785 12.1474 27.1812 10.0495 27.1781C9.67788 27.1782 9.30658 27.1565 8.9375 27.1131C11.067 28.4823 13.5458 29.2089 16.0775 29.2061C24.6475 29.2061 29.3325 22.1081 29.3325 15.9521C29.3325 15.7521 29.3275 15.5501 29.3185 15.3501C30.2298 14.6911 31.0164 13.875 31.6415 12.9401L31.6435 12.9371V12.9371Z" fill="black"/>
</g>
<defs>
<clipPath id="clip0_997_24107">
<rect width="24" height="24" fill="white" transform="translate(7 8)"/>
</clipPath>
</defs>
</svg>
